<svg width="18" height="18" viewBox="0 0 18 18" fill="none" xmlns="http://www.w3.org/2000/svg">
<mask id="mask0_652_54" style="mask-type:alpha" maskUnits="userSpaceOnUse" x="0" y="0" width="18" height="18">
<rect width="18" height="18" rx="1" transform="matrix(0 -1 -1 0 18 18)" fill="#D9D9D9"/>
</mask>
<g mask="url(#mask0_652_54)">
<path d="M2.16562 5.33438C1.79801 5.70199 1.79801 6.29801 2.16562 6.66563L8.29289 12.7929C8.68342 13.1834 9.31658 13.1834 9.70711 12.7929L15.8344 6.66563C16.202 6.29801 16.202 5.70199 15.8344 5.33438C15.4668 4.96676 14.8707 4.96676 14.5031 5.33438L9.70711 10.1304C9.31658 10.5209 8.68342 10.5209 8.29289 10.1304L3.49687 5.33438C3.12926 4.96676 2.53324 4.96676 2.16562 5.33438Z" fill="#8A2BE2"/>
</g>
</svg>
