<svg width="28" height="28" viewBox="0 0 28 28" fill="none" xmlns="http://www.w3.org/2000/svg">
<mask id="mask0_213_503" style="mask-type:alpha" maskUnits="userSpaceOnUse" x="0" y="0" width="28" height="28">
<rect width="28" height="28" fill="#D9D9D9"/>
</mask>
<g mask="url(#mask0_213_503)">
<path d="M14 18.3167L18.2583 14.0583L17.0333 12.8333L14.875 14.9917V9.68332H13.125V14.9917L10.9666 12.8333L9.74163 14.0583L14 18.3167ZM14 25.0833C12.4638 25.0833 11.0203 24.7917 9.66929 24.2083C8.31751 23.625 7.14579 22.8375 6.15413 21.8458C5.16246 20.8542 4.37496 19.6824 3.79163 18.3307C3.20829 16.9797 2.91663 15.5361 2.91663 14C2.91663 12.4639 3.20829 11.0199 3.79163 9.66816C4.37496 8.31716 5.16246 7.14582 6.15413 6.15416C7.14579 5.16249 8.31751 4.37499 9.66929 3.79166C11.0203 3.20832 12.4638 2.91666 14 2.91666C15.5361 2.91666 16.98 3.20832 18.3318 3.79166C19.6828 4.37499 20.8541 5.16249 21.8458 6.15416C22.8375 7.14582 23.625 8.31716 24.2083 9.66816C24.7916 11.0199 25.0833 12.4639 25.0833 14C25.0833 15.5361 24.7916 16.9797 24.2083 18.3307C23.625 19.6824 22.8375 20.8542 21.8458 21.8458C20.8541 22.8375 19.6828 23.625 18.3318 24.2083C16.98 24.7917 15.5361 25.0833 14 25.0833ZM14 23.3333C16.6055 23.3333 18.8125 22.4292 20.6208 20.6208C22.4291 18.8125 23.3333 16.6055 23.3333 14C23.3333 11.3944 22.4291 9.18749 20.6208 7.37916C18.8125 5.57082 16.6055 4.66666 14 4.66666C11.3944 4.66666 9.18746 5.57082 7.37913 7.37916C5.57079 9.18749 4.66663 11.3944 4.66663 14C4.66663 16.6055 5.57079 18.8125 7.37913 20.6208C9.18746 22.4292 11.3944 23.3333 14 23.3333Z" fill="#FFFDFA"/>
</g>
</svg>
