<svg width="22" height="22" viewBox="0 0 22 22" fill="none" xmlns="http://www.w3.org/2000/svg">
<mask id="mask0_388_129" style="mask-type:alpha" maskUnits="userSpaceOnUse" x="0" y="0" width="22" height="22">
<rect width="22" height="22" fill="#D9D9D9"/>
</mask>
<g mask="url(#mask0_388_129)">
<path d="M10.0837 8.24984V5.49984H7.33366V3.6665H10.0837V0.916504H11.917V3.6665H14.667V5.49984H11.917V8.24984H10.0837ZM6.41699 20.1665C5.91283 20.1665 5.48138 19.9871 5.12266 19.6284C4.76333 19.2691 4.58366 18.8373 4.58366 18.3332C4.58366 17.829 4.76333 17.3973 5.12266 17.0379C5.48138 16.6792 5.91283 16.4998 6.41699 16.4998C6.92116 16.4998 7.3526 16.6792 7.71133 17.0379C8.07066 17.3973 8.25033 17.829 8.25033 18.3332C8.25033 18.8373 8.07066 19.2691 7.71133 19.6284C7.3526 19.9871 6.92116 20.1665 6.41699 20.1665ZM15.5837 20.1665C15.0795 20.1665 14.648 19.9871 14.2893 19.6284C13.93 19.2691 13.7503 18.8373 13.7503 18.3332C13.7503 17.829 13.93 17.3973 14.2893 17.0379C14.648 16.6792 15.0795 16.4998 15.5837 16.4998C16.0878 16.4998 16.5196 16.6792 16.8789 17.0379C17.2376 17.3973 17.417 17.829 17.417 18.3332C17.417 18.8373 17.2376 19.2691 16.8789 19.6284C16.5196 19.9871 16.0878 20.1665 15.5837 20.1665ZM6.41699 15.5832C5.72949 15.5832 5.20241 15.2813 4.83574 14.6775C4.46908 14.0743 4.46144 13.4748 4.81283 12.879L6.05033 10.6332L2.75033 3.6665H0.916992V1.83317H3.91908L7.81491 10.0832H14.2545L17.8066 3.6665L19.4107 4.53734L15.8587 10.954C15.6906 11.2596 15.4691 11.4964 15.1941 11.6644C14.9191 11.8325 14.6059 11.9165 14.2545 11.9165H7.42533L6.41699 13.7498H17.417V15.5832H6.41699Z" fill="#FFFDFA"/>
</g>
</svg>
