<svg width="18" height="18" viewBox="0 0 18 18" fill="none" xmlns="http://www.w3.org/2000/svg">
<mask id="mask0_480_161" style="mask-type:alpha" maskUnits="userSpaceOnUse" x="0" y="0" width="18" height="18">
<rect width="18" height="18" fill="#D9D9D9"/>
</mask>
<g mask="url(#mask0_480_161)">
<path d="M1.5 18V15H16.5V18H1.5ZM3 13.5V10.6875L9.7875 3.90001L12.6 6.71251L5.8125 13.5H3ZM4.5 12H5.175L10.5 6.71251L9.7875 6.00001L4.5 11.325V12ZM13.4437 5.88751L10.6313 3.07501L11.9813 1.72501C12.1188 1.57501 12.2937 1.50301 12.5062 1.50901C12.7187 1.51551 12.8938 1.58751 13.0312 1.72501L14.7938 3.48751C14.9313 3.62501 15 3.79701 15 4.00351C15 4.20951 14.9313 4.38751 14.7938 4.53751L13.4437 5.88751Z" fill="#8A2BE2"/>
</g>
</svg>
