<svg width="42" height="42" viewBox="0 0 42 42" fill="none" xmlns="http://www.w3.org/2000/svg">
<mask id="mask0_367_475" style="mask-type:alpha" maskUnits="userSpaceOnUse" x="0" y="0" width="42" height="42">
<rect width="42" height="42" rx="4" fill="#D9D9D9"/>
</mask>
<g mask="url(#mask0_367_475)">
<path d="M20.7813 35C20.898 35 21.0146 34.9708 21.1313 34.9125C21.248 34.8542 21.3355 34.7958 21.3938 34.7375L35.7438 20.3875C36.0938 20.0375 36.3493 19.6438 36.5103 19.2063C36.6701 18.7688 36.75 18.3313 36.75 17.8938C36.75 17.4271 36.6701 16.982 36.5103 16.5585C36.3493 16.1362 36.0938 15.7646 35.7438 15.4437L28.3063 8.00625C27.9855 7.65625 27.6139 7.40075 27.1915 7.23975C26.768 7.07992 26.323 7 25.8563 7C25.4188 7 24.9813 7.07992 24.5438 7.23975C24.1063 7.40075 23.7125 7.65625 23.3625 8.00625C23.0962 8.27256 23.0948 8.70388 23.3593 8.97197L26.1188 11.7688C26.5563 12.1771 26.8771 12.6438 27.0813 13.1687C27.2855 13.6938 27.3875 14.2479 27.3875 14.8313C27.3875 16.0563 26.9722 17.0841 26.1415 17.9148C25.3097 18.7466 24.2813 19.1625 23.0563 19.1625C22.473 19.1625 21.9118 19.0604 21.3728 18.8562C20.8326 18.6521 20.3584 18.3458 19.95 17.9375L19.4971 17.4906C17.932 15.9464 15.414 15.9548 13.8593 17.5095L9.01255 22.3562C8.92505 22.4437 8.85913 22.5388 8.8148 22.6415C8.77163 22.743 8.75004 22.8521 8.75004 22.9688C8.75004 23.2021 8.83754 23.4132 9.01255 23.6023C9.18754 23.7924 9.39171 23.8875 9.62504 23.8875C9.74171 23.8875 9.85838 23.8583 9.97504 23.8C10.0917 23.7417 10.1792 23.6833 10.2375 23.625L14.9603 18.9023C15.6381 18.2245 16.737 18.2245 17.4148 18.9023C18.0908 19.5783 18.0929 20.6737 17.4193 21.3522L12.7313 26.075C12.6438 26.1625 12.5779 26.257 12.5335 26.3585C12.4904 26.4612 12.4688 26.5708 12.4688 26.6875C12.4688 26.9208 12.5563 27.125 12.7313 27.3C12.9063 27.475 13.1105 27.5625 13.3438 27.5625C13.4605 27.5625 13.5771 27.5333 13.6938 27.475C13.8105 27.4167 13.898 27.3583 13.9563 27.3L18.6768 22.6142C19.3566 21.9394 20.454 21.9415 21.1313 22.6187C21.8086 23.296 21.8106 24.3935 21.1358 25.0733L16.6848 29.5573C16.5287 29.7145 16.3309 29.8484 16.254 30.0562C16.2097 30.1729 16.1875 30.2896 16.1875 30.4062C16.1875 30.6396 16.275 30.8438 16.45 31.0188C16.625 31.1938 16.8292 31.2812 17.0625 31.2812C17.1792 31.2812 17.2889 31.2591 17.3915 31.2148C17.493 31.1716 17.5875 31.1063 17.675 31.0188L22.3978 26.3307C23.0763 25.6572 24.1718 25.6592 24.8478 26.3352C25.5256 27.013 25.5256 28.112 24.8478 28.7898L20.125 33.5125C20.0375 33.6 19.9722 33.6945 19.929 33.796C19.8847 33.8987 19.8625 34.0083 19.8625 34.125C19.8625 34.3583 19.9576 34.5625 20.1478 34.7375C20.3368 34.9125 20.548 35 20.7813 35ZM20.7375 38.5C19.6584 38.5 18.7035 38.1424 17.8728 37.4272C17.7941 37.3597 17.7184 37.2905 17.6458 37.2196C16.4473 36.0498 15.0968 34.6967 13.9125 33.5125C12.7286 32.3286 11.3745 30.9822 10.2165 29.7728C9.07148 28.5768 7.71069 27.2827 6.53836 26.1135C6.45645 26.0318 6.37701 25.946 6.30004 25.8562C5.60004 25.0396 5.25004 24.0771 5.25004 22.9688C5.25004 22.3854 5.35971 21.8237 5.57904 21.2835C5.79721 20.7445 6.11046 20.2708 6.51879 19.8625L13.8404 12.5725C15.4035 11.0161 17.9314 11.0189 19.4911 12.5786L22.1644 15.2519C22.3211 15.4086 22.4547 15.6066 22.6625 15.6835C22.7792 15.7278 22.8959 15.75 23.0125 15.75C23.275 15.75 23.4938 15.6701 23.6688 15.5103C23.8438 15.3492 23.9313 15.1375 23.9313 14.875C23.9313 14.7583 23.9097 14.6417 23.8665 14.525C23.7876 14.3173 23.5897 14.1834 23.4325 14.0262L17.4125 8.00625C17.0917 7.65625 16.7195 7.40075 16.296 7.23975C15.8737 7.07992 15.4292 7 14.9625 7C14.525 7 14.0875 7.07992 13.65 7.23975C13.2125 7.40075 12.8188 7.65625 12.4688 8.00625L6.30004 14.2188C6.03754 14.4812 5.81879 14.7875 5.64379 15.1375C5.46879 15.4875 5.35213 15.8375 5.29379 16.1875C5.23546 16.5375 5.23546 16.8945 5.29379 17.2585C5.39594 17.8979 5.32936 18.6019 4.87147 19.0598L4.64943 19.2819C3.83697 20.0943 2.46729 19.9871 2.10124 18.898C2.06982 18.8045 2.04026 18.7101 2.01254 18.6147C1.77921 17.8133 1.69171 17.0042 1.75004 16.1875C1.80838 15.3708 2.01254 14.5758 2.36254 13.8022C2.71254 13.0299 3.19379 12.3375 3.80629 11.725L9.97504 5.55625C10.675 4.88542 11.4555 4.375 12.3165 4.025C13.1764 3.675 14.0584 3.5 14.9625 3.5C15.8667 3.5 16.7487 3.675 17.6085 4.025C18.4695 4.375 19.2355 4.88542 19.9063 5.55625C20.1721 5.82204 20.603 5.82204 20.8688 5.55625C21.5688 4.88542 22.3487 4.375 23.2085 4.025C24.0695 3.675 24.9521 3.5 25.8563 3.5C26.7605 3.5 27.643 3.675 28.504 4.025C29.3639 4.375 30.1292 4.88542 30.8 5.55625L38.1938 12.95C38.8646 13.6208 39.375 14.3938 39.725 15.2688C40.075 16.1438 40.25 17.0333 40.25 17.9375C40.25 18.8417 40.075 19.7237 39.725 20.5835C39.375 21.4445 38.8646 22.2104 38.1938 22.8813L23.8438 37.1875C23.4355 37.5958 22.9612 37.9167 22.421 38.15C21.882 38.3833 21.3209 38.5 20.7375 38.5Z" fill="#8A2BE2"/>
</g>
</svg>
