<svg width="20" height="20" viewBox="0 0 20 20" fill="none" xmlns="http://www.w3.org/2000/svg">
<g clip-path="url(#clip0_198_543)">
<path d="M9.99998 9.99999C9.08331 9.99999 8.33331 9.24999 8.33331 8.33332C8.33331 7.41666 9.08331 6.66666 9.99998 6.66666C10.9166 6.66666 11.6666 7.41666 11.6666 8.33332C11.6666 9.24999 10.9166 9.99999 9.99998 9.99999ZM15 8.49999C15 5.47499 12.7916 3.33332 9.99998 3.33332C7.20831 3.33332 4.99998 5.47499 4.99998 8.49999C4.99998 10.45 6.62498 13.0333 9.99998 16.1167C13.375 13.0333 15 10.45 15 8.49999ZM9.99998 1.66666C13.5 1.66666 16.6666 4.34999 16.6666 8.49999C16.6666 11.2667 14.4416 14.5417 9.99998 18.3333C5.55831 14.5417 3.33331 11.2667 3.33331 8.49999C3.33331 4.34999 6.49998 1.66666 9.99998 1.66666Z" fill="#626262"/>
</g>
<defs>
<clipPath id="clip0_198_543">
<rect width="20" height="20" fill="white"/>
</clipPath>
</defs>
</svg>
