<svg width="28" height="28" viewBox="0 0 28 28" fill="none" xmlns="http://www.w3.org/2000/svg">
<mask id="mask0_693_6" style="mask-type:alpha" maskUnits="userSpaceOnUse" x="0" y="0" width="28" height="28">
<rect width="28" height="28" fill="#D9D9D9"/>
</mask>
<g mask="url(#mask0_693_6)">
<path d="M11.6667 24.5C10.3833 24.5 9.28472 24.0431 8.37083 23.1292C7.45694 22.2153 7 21.1167 7 19.8333C7 18.55 7.45694 17.4514 8.37083 16.5375C9.28472 15.6236 10.3833 15.1667 11.6667 15.1667C12.1139 15.1667 12.5269 15.2199 12.9057 15.3265C13.2852 15.4338 13.65 15.5944 14 15.8083V3.5H21V8.16667H16.3333V19.8333C16.3333 21.1167 15.8764 22.2153 14.9625 23.1292C14.0486 24.0431 12.95 24.5 11.6667 24.5Z" fill="#B0B0B0"/>
</g>
</svg>
