<svg width="32" height="32" viewBox="0 0 32 32" fill="none" xmlns="http://www.w3.org/2000/svg">
<mask id="mask0_442_898" style="mask-type:alpha" maskUnits="userSpaceOnUse" x="0" y="0" width="32" height="32">
<rect width="32" height="32" fill="#D9D9D9"/>
</mask>
<g mask="url(#mask0_442_898)">
<path d="M8 29.3332C9.11111 29.3332 10.0556 28.9443 10.8333 28.1665C11.6111 27.3888 12 26.4443 12 25.3332C12 25.1777 11.9889 25.0163 11.9667 24.8492C11.9444 24.683 11.9111 24.5332 11.8667 24.3999L21.2667 18.9332C21.6444 19.2665 22.0667 19.5274 22.5333 19.7159C23 19.9052 23.4889 19.9999 24 19.9999C25.1111 19.9999 26.0556 19.611 26.8333 18.8332C27.6111 18.0554 28 17.111 28 15.9999C28 14.8888 27.6111 13.9443 26.8333 13.1665C26.0556 12.3888 25.1111 11.9999 24 11.9999C23.4889 11.9999 23 12.0941 22.5333 12.2825C22.0667 12.4719 21.6444 12.7332 21.2667 13.0665L11.8667 7.59988C11.9111 7.46655 11.9444 7.31677 11.9667 7.15055C11.9889 6.98344 12 6.8221 12 6.66655C12 5.55544 11.6111 4.61099 10.8333 3.83322C10.0556 3.05544 9.11111 2.66655 8 2.66655C6.88889 2.66655 5.94444 3.05544 5.16667 3.83322C4.38889 4.61099 4 5.55544 4 6.66655C4 7.77766 4.38889 8.72211 5.16667 9.49988C5.94444 10.2777 6.88889 10.6665 8 10.6665C8.51111 10.6665 9 10.5719 9.46667 10.3825C9.93333 10.1941 10.3556 9.93322 10.7333 9.59988L20.1333 15.0665C20.0889 15.1999 20.0556 15.3497 20.0333 15.5159C20.0111 15.683 20 15.8443 20 15.9999C20 16.1554 20.0111 16.3163 20.0333 16.4825C20.0556 16.6497 20.0889 16.7999 20.1333 16.9332L10.7333 22.3999C10.3556 22.0665 9.93333 21.8052 9.46667 21.6159C9 21.4274 8.51111 21.3332 8 21.3332C6.88889 21.3332 5.94444 21.7221 5.16667 22.4999C4.38889 23.2777 4 24.2221 4 25.3332C4 26.4443 4.38889 27.3888 5.16667 28.1665C5.94444 28.9443 6.88889 29.3332 8 29.3332ZM8 7.99988C7.62222 7.99988 7.30578 7.87233 7.05067 7.61722C6.79467 7.36122 6.66667 7.04433 6.66667 6.66655C6.66667 6.28877 6.79467 5.97188 7.05067 5.71588C7.30578 5.46077 7.62222 5.33322 8 5.33322C8.37778 5.33322 8.69422 5.46077 8.94933 5.71588C9.20533 5.97188 9.33333 6.28877 9.33333 6.66655C9.33333 7.04433 9.20533 7.36122 8.94933 7.61722C8.69422 7.87233 8.37778 7.99988 8 7.99988ZM24 17.3332C23.6222 17.3332 23.3053 17.2052 23.0493 16.9492C22.7942 16.6941 22.6667 16.3777 22.6667 15.9999C22.6667 15.6221 22.7942 15.3052 23.0493 15.0492C23.3053 14.7941 23.6222 14.6665 24 14.6665C24.3778 14.6665 24.6947 14.7941 24.9507 15.0492C25.2058 15.3052 25.3333 15.6221 25.3333 15.9999C25.3333 16.3777 25.2058 16.6941 24.9507 16.9492C24.6947 17.2052 24.3778 17.3332 24 17.3332ZM8 26.6665C7.62222 26.6665 7.30578 26.5385 7.05067 26.2825C6.79467 26.0274 6.66667 25.711 6.66667 25.3332C6.66667 24.9554 6.79467 24.639 7.05067 24.3839C7.30578 24.1279 7.62222 23.9999 8 23.9999C8.37778 23.9999 8.69422 24.1279 8.94933 24.3839C9.20533 24.639 9.33333 24.9554 9.33333 25.3332C9.33333 25.711 9.20533 26.0274 8.94933 26.2825C8.69422 26.5385 8.37778 26.6665 8 26.6665Z" fill="#1F1F1F"/>
</g>
</svg>
