<svg width="42" height="42" viewBox="0 0 42 42" fill="none" xmlns="http://www.w3.org/2000/svg">
<mask id="mask0_367_439" style="mask-type:alpha" maskUnits="userSpaceOnUse" x="0" y="0" width="42" height="42">
<rect width="42" height="42" rx="4" fill="#D9D9D9"/>
</mask>
<g mask="url(#mask0_367_439)">
<path d="M8.38001 10.6849C6.94175 11.404 5.24951 10.3581 5.24951 8.75012C5.24951 7.1421 6.94175 6.09624 8.38001 6.81537C9.97433 7.61253 9.97433 9.88771 8.38001 10.6849ZM34.63 10.6849C33.1917 11.404 31.4995 10.3581 31.4995 8.75012C31.4995 7.1421 33.1917 6.09624 34.63 6.81537C36.2243 7.61253 36.2243 9.88771 34.63 10.6849ZM22.38 8.93487C20.9417 9.654 19.2495 8.60814 19.2495 7.00012C19.2495 5.3921 20.9417 4.34624 22.38 5.06537C23.9743 5.86253 23.9743 8.13771 22.38 8.93487ZM19.2495 34.9541C19.2495 36.8972 17.6447 38.4741 15.7103 38.2896C14.7962 38.2025 13.9127 38.0906 13.0598 37.9541C11.1488 37.6473 9.48626 37.2605 8.07226 36.7939C6.65709 36.3272 5.54118 35.7876 4.72451 35.1751C3.90785 34.5626 3.49951 33.921 3.49951 33.2501V17.5001C3.49951 16.771 3.95918 16.0925 4.87851 15.4649C5.79668 14.8384 7.04326 14.2842 8.61826 13.8024C10.1933 13.3217 12.0453 12.9425 14.1745 12.6649C16.3037 12.3884 18.5787 12.2501 20.9995 12.2501C23.4203 12.2501 25.6953 12.3884 27.8245 12.6649C29.9537 12.9425 31.8058 13.3217 33.3808 13.8024C34.9558 14.2842 36.2023 14.8384 37.1205 15.4649C38.0398 16.0925 38.4995 16.771 38.4995 17.5001V33.2501C38.4995 33.921 38.0912 34.5626 37.2745 35.1751C36.4578 35.7876 35.3425 36.3272 33.9285 36.7939C32.5133 37.2605 30.8508 37.6473 28.941 37.9541C28.0874 38.0907 27.2033 38.2025 26.2887 38.2897C24.3543 38.4741 22.7495 36.8972 22.7495 34.9541V33.2501C22.7495 32.2836 21.966 31.5001 20.9995 31.5001C20.033 31.5001 19.2495 32.2836 19.2495 33.2501V34.9541ZM20.9995 19.2501C23.8287 19.2501 26.2717 19.0821 28.3285 18.7461C29.1259 18.6162 29.8609 18.4786 30.5333 18.3333C32.1856 17.9762 32.2292 17.1354 30.5898 16.7232C30.3804 16.6705 30.1586 16.6157 29.9245 16.5586C27.7078 16.0196 24.7328 15.7501 20.9995 15.7501C17.2662 15.7501 14.2912 16.0196 12.0745 16.5586C11.8404 16.6157 11.6186 16.6705 11.4092 16.7232C9.76977 17.1354 9.8134 17.9761 11.4657 18.3331C12.1386 18.4785 12.8741 18.6162 13.6723 18.7461C15.7279 19.0821 18.1703 19.2501 20.9995 19.2501ZM12.248 34.2464C14.1081 34.6012 15.7495 33.0945 15.7495 31.2008C15.7495 29.4331 17.1825 28.0001 18.9502 28.0001H23.0488C24.8165 28.0001 26.2495 29.4331 26.2495 31.2008C26.2495 33.0945 27.8909 34.6012 29.751 34.2464C30.5775 34.0887 31.3208 33.9095 31.9808 33.7086C32.3681 33.5911 32.7227 33.4769 33.0448 33.3663C34.3096 32.9316 34.9995 31.703 34.9995 30.3656V26.5582C34.9995 23.7284 32.0838 21.6703 29.2913 22.1286C29.1824 22.1464 29.0726 22.164 28.962 22.1814C26.5412 22.5605 23.887 22.7501 20.9995 22.7501C18.112 22.7501 15.4578 22.5605 13.037 22.1814C12.9264 22.164 12.8166 22.1464 12.7077 22.1286C9.91524 21.6703 6.99951 23.7284 6.99951 26.5583V30.3656C6.99951 31.703 7.68944 32.9316 8.95425 33.3663C9.27629 33.4769 9.63096 33.5911 10.0183 33.7086C10.6782 33.9095 11.4215 34.0887 12.248 34.2464Z" fill="#8A2BE2"/>
</g>
</svg>
