<svg width="22" height="22" viewBox="0 0 22 22" fill="none" xmlns="http://www.w3.org/2000/svg">
<mask id="mask0_442_991" style="mask-type:alpha" maskUnits="userSpaceOnUse" x="0" y="0" width="22" height="22">
<rect width="22" height="22" fill="#D9D9D9"/>
</mask>
<g mask="url(#mask0_442_991)">
<path d="M2.74967 6.41677V2.7501L6.41634 4.58344L2.74967 6.41677ZM16.4997 6.41677V2.7501L20.1663 4.58344L16.4997 6.41677ZM10.083 5.5001V1.83344L13.7497 3.66677L10.083 5.5001ZM10.083 20.1668C8.9219 20.1362 7.84115 20.0409 6.84076 19.8808C5.83976 19.72 4.96892 19.5175 4.22826 19.273C3.48698 19.0286 2.90245 18.7459 2.47467 18.4251C2.0469 18.1043 1.83301 17.7682 1.83301 17.4168V9.16677C1.83301 8.78482 2.07379 8.42946 2.55534 8.10068C3.03629 7.77252 3.68926 7.48224 4.51426 7.22985C5.33926 6.97807 6.3094 6.77946 7.42467 6.63402C8.53995 6.48918 9.73162 6.41677 10.9997 6.41677C12.2677 6.41677 13.4594 6.48918 14.5747 6.63402C15.69 6.77946 16.6601 6.97807 17.4851 7.22985C18.3101 7.48224 18.9631 7.77252 19.444 8.10068C19.9256 8.42946 20.1663 8.78482 20.1663 9.16677V17.4168C20.1663 17.7682 19.9525 18.1043 19.5247 18.4251C19.0969 18.7459 18.5127 19.0286 17.772 19.273C17.0307 19.5175 16.1599 19.72 15.1595 19.8808C14.1585 20.0409 13.0775 20.1362 11.9163 20.1668V16.5001H10.083V20.1668ZM10.9997 10.0834C12.4816 10.0834 13.7613 9.99543 14.8387 9.81943C15.9155 9.64405 16.7747 9.44177 17.4163 9.2126C17.4163 9.13621 16.8358 8.95655 15.6747 8.6736C14.5136 8.39127 12.9552 8.2501 10.9997 8.2501C9.04412 8.2501 7.48579 8.39127 6.32467 8.6736C5.16356 8.95655 4.58301 9.13621 4.58301 9.2126C5.22467 9.44177 6.0842 9.64405 7.16159 9.81943C8.23837 9.99543 9.51773 10.0834 10.9997 10.0834ZM8.24967 18.1959V14.6668H13.7497V18.1959C14.9719 18.0737 15.9726 17.894 16.7518 17.6569C17.5309 17.4204 18.058 17.2105 18.333 17.0272V10.8168C17.4927 11.1529 16.4386 11.4202 15.1705 11.6189C13.9025 11.8175 12.5122 11.9168 10.9997 11.9168C9.48717 11.9168 8.0969 11.8175 6.82884 11.6189C5.56079 11.4202 4.50662 11.1529 3.66634 10.8168V17.0272C3.94134 17.2105 4.46842 17.4204 5.24759 17.6569C6.02676 17.894 7.02745 18.0737 8.24967 18.1959Z" fill="#8A2BE2"/>
</g>
</svg>
