<svg width="42" height="42" viewBox="0 0 42 42" fill="none" xmlns="http://www.w3.org/2000/svg">
<mask id="mask0_367_457" style="mask-type:alpha" maskUnits="userSpaceOnUse" x="0" y="0" width="42" height="42">
<rect width="42" height="42" rx="4" fill="#D9D9D9"/>
</mask>
<g mask="url(#mask0_367_457)">
<path d="M21 38.5C18.5792 38.5 16.3042 38.0403 14.175 37.121C12.0458 36.2028 10.1938 34.9563 8.61875 33.3813C7.04375 31.8063 5.79717 29.9542 4.879 27.825C3.95967 25.6958 3.5 23.4208 3.5 21C3.5 18.5792 3.95967 16.3042 4.879 14.175C5.79717 12.0458 7.04375 10.1938 8.61875 8.61875C10.1938 7.04375 12.0458 5.79658 14.175 4.87725C16.3042 3.95908 18.5792 3.5 21 3.5C22.8958 3.5 24.6896 3.77708 26.3813 4.33125C27.3732 4.65621 28.3201 5.05639 29.2218 5.53179C30.2179 6.05694 30.3411 7.38381 29.5517 8.18682C28.9525 8.79636 28.0143 8.89452 27.251 8.51004C26.523 8.14338 25.7664 7.83661 24.9812 7.58975C23.7271 7.19658 22.4 7 21 7C17.1208 7 13.818 8.36325 11.0915 11.0897C8.36383 13.8174 7 17.1208 7 21C7 24.8792 8.36383 28.1826 11.0915 30.9102C13.818 33.6367 17.1208 35 21 35C24.8792 35 28.1826 33.6367 30.9102 30.9102C33.6367 28.1826 35 24.8792 35 21C35 20.475 34.9708 19.95 34.9125 19.425C34.8934 19.2527 34.8711 19.082 34.8456 18.9128C34.7497 18.2747 34.9277 17.6161 35.384 17.1598C36.3581 16.1857 37.9981 16.5809 38.2375 17.9375C38.4125 18.9292 38.5 19.95 38.5 21C38.5 23.4208 38.0403 25.6958 37.121 27.825C36.2028 29.9542 34.9563 31.8063 33.3813 33.3813C31.8063 34.9563 29.9542 36.2028 27.825 37.121C25.6958 38.0403 23.4208 38.5 21 38.5ZM21.3784 26.2154C19.8168 27.7804 17.2818 27.7818 15.7185 26.2185L12.3375 22.8375C11.661 22.161 11.661 21.064 12.3375 20.3875C13.014 19.711 14.111 19.711 14.7875 20.3875L16.0547 21.6547C17.4323 23.0323 19.6663 23.0309 21.0422 21.6516L34.8251 7.83422C35.5013 7.15628 36.5993 7.15559 37.2764 7.83269C37.9524 8.50866 37.953 9.60444 37.2778 10.2812L21.3784 26.2154Z" fill="#8A2BE2"/>
</g>
</svg>
