<svg width="507" height="338" viewBox="0 0 507 338" fill="none" xmlns="http://www.w3.org/2000/svg">
<g clip-path="url(#clip0_367_394)">
<path d="M196.018 30.5362H134.507C132.397 30.5362 130.68 28.8159 130.68 26.7017C130.68 24.5874 132.397 22.8672 134.507 22.8672H196.018C198.128 22.8672 199.845 24.5874 199.845 26.7017C199.845 28.8159 198.128 30.5362 196.018 30.5362Z" fill="#E6E7E8"/>
<path d="M244.022 43.5144H134.507C132.397 43.5144 130.68 41.7942 130.68 39.6799C130.68 37.5657 132.397 35.8455 134.507 35.8455H244.022C246.132 35.8455 247.849 37.5657 247.849 39.6799C247.849 41.7942 246.132 43.5144 244.022 43.5144Z" fill="#E6E7E8"/>
<path d="M244.022 56.3759H134.507C132.397 56.3759 130.68 54.6557 130.68 52.5414C130.68 50.4271 132.397 48.7069 134.507 48.7069H244.022C246.132 48.7069 247.849 50.4271 247.849 52.5414C247.849 54.6557 246.132 56.3759 244.022 56.3759Z" fill="#E6E7E8"/>
<path d="M255.622 123.12V121.282C234.455 121.282 215.97 103.958 211.056 79.8264L219.031 81.8821C215.174 78.2204 211.277 72.0904 208.859 67.0804C207.431 72.4588 204.765 79.2177 201.669 83.5454L209.216 79.9639C214.233 105.07 233.512 123.12 255.622 123.12Z" fill="#3F3D56"/>
<path d="M247.615 52.8055C247.615 54.8317 245.97 56.4802 243.948 56.4802H196.268C194.246 56.4802 192.6 54.8317 192.6 52.8055C192.6 50.7793 194.246 49.1308 196.268 49.1308H243.948C245.97 49.1308 247.615 50.7793 247.615 52.8055Z" fill="#8A2BE2"/>
<path d="M32.9208 257.503C32.1949 254.97 30.952 252.811 29.4722 251.27L24.0957 226.714L12.3765 229.59L19.0922 254.19C18.6505 256.271 18.7389 258.756 19.4647 261.288C21.1229 267.074 25.4793 270.916 29.1951 269.87C32.9109 268.825 34.5789 263.288 32.9208 257.503H32.9208Z" fill="#FFB6B6"/>
<path d="M31.2995 96.421C31.2995 96.421 18.6416 95.9833 11.3062 104.251C2.90218 114.537 -2.84236 154.84 1.47009 157.554L13.154 240.681L29.8152 238.387L25.5391 138.647L31.2995 96.421V96.421Z" fill="#8A2BE2"/>
<path d="M116.752 236.541L113.719 337.997H70.1654L68.405 298.889L60.6662 337.997H13.9861L19.8085 270.768L25.8234 256.63L29.8945 247.048L116.752 236.541Z" fill="#2F2E41"/>
<path d="M82.1588 79.8488L51.9006 78.0115L41.8145 90.873C33.1035 92.7417 25.2356 95.1542 19.8085 99.1411C21.1069 137.657 18.2547 187.74 29.8946 197.439L19.5586 270.532C19.5586 270.532 23.7268 266.954 30.6897 268.217C33.0951 268.653 35.9989 274.083 38.9547 274.412C61.6664 276.94 98.4968 274.34 116.752 236.541L109.666 181.822L111.5 101.897C105.767 97.3567 98.6397 94.406 90.411 92.7103L82.1588 79.8488V79.8488H82.1588Z" fill="#8A2BE2"/>
<path d="M140.41 57.4893C140.739 60.6744 140.322 63.6696 139.362 66.0711L144.402 96.2146L130.016 98.198L126.452 67.4069C125.022 65.2527 124.003 62.406 123.675 59.221C122.925 51.9449 126.063 45.6588 130.685 45.1806C135.306 44.7024 139.66 50.2132 140.41 57.4893V57.4893H140.41H140.41Z" fill="#FFB6B6"/>
<path d="M92.5814 104.2C91.0752 106.427 91.4948 108.93 91.1352 111.937C89.6084 124.703 114.025 162.427 130.92 166.771C133.137 167.341 134.4 169.737 136.638 170.219H136.638C143.267 171.646 149.439 166.374 149.081 159.591L144.492 72.5846L125.212 79.1734L126.446 124.345C126.323 114.987 117.746 105.459 111.25 101.495C111.25 101.495 98.0913 96.0548 92.5814 104.2L92.5814 104.2Z" fill="#8A2BE2"/>
<path d="M70.1695 75.6341C84.8893 75.6341 96.8221 63.6784 96.8221 48.9303C96.8221 34.1822 84.8893 22.2264 70.1695 22.2264C55.4496 22.2264 43.5168 34.1822 43.5168 48.9303C43.5168 63.6784 55.4496 75.6341 70.1695 75.6341Z" fill="#FFB6B6"/>
<path d="M94.9954 29.3216C94.7662 29.3768 98.5038 25.7267 98.6631 25.6469C102.331 23.8096 98.5621 41.7697 95.9123 41.2644C89.393 40.0242 86.5781 37.5621 84.0474 43.7081C83.3414 45.4168 82.9013 47.346 81.5259 48.5679C79.6371 50.2307 76.5012 50.0929 74.9608 52.0772C73.7229 53.6757 74.0806 56.0275 74.9975 57.8281C75.9144 59.6379 77.3081 61.1721 78.1425 63.0187C79.0778 65.0949 75.0891 71.7002 73.5671 75.4116V75.4208L73.558 75.4425C73.1536 76.4161 72.1925 73.6117 71.1778 73.3317C69.9636 72.9968 68.1748 75.8693 66.2409 75.3473C66.2317 75.3473 66.2226 75.3381 66.2134 75.3381C64.3704 74.8236 62.3165 74.2725 60.281 73.7212H60.2718C54.5411 72.1595 53.0923 74.4011 52.8173 74.3368L49.2596 70.6069C48.0387 69.7163 48.1767 66.8409 47.3158 66.0687C46.6117 65.4371 44.8564 66.8965 44.3391 66.2894C41.8026 63.3129 41.219 60.3353 39.7237 54.4566C38.3575 49.0824 35.5243 32.9963 41.3467 32.2705C46.839 31.5815 42.8229 23.9198 48.3519 24.2046C48.0218 22.8082 48.6361 21.3107 49.6356 20.2818C50.6258 19.2437 51.9462 18.6006 53.2757 18.0494C59.8317 15.3669 58.7406 13.0611 65.6541 14.6228C66.3418 13.6582 75.1601 11.1435 76.4071 11.465C76.4988 11.4834 74.484 15.4037 79.4078 14.6228C79.2244 15.7528 81.9086 13.3024 82.1586 17.3788C87.4101 14.2211 90.2366 21.7793 90.4108 22.8909C90.64 24.2781 88.5494 23.5707 89.9432 23.782C90.7684 23.9106 92.1804 25.5918 92.0429 26.4278C92.6389 25.6193 93.2349 24.8201 93.84 24.0116C93.9501 24.0208 94.0509 24.0392 94.161 24.0576C96.9484 24.5904 93.7528 33.7202 93.8676 30.8742C94.0785 25.6469 97.7736 28.7061 94.9954 29.3216H94.9954Z" fill="#2F2E41"/>
<path d="M434.957 23.8468C433.972 31.9562 432.896 40.0545 431.73 48.1397C431.256 51.4235 430.754 54.7491 429.436 57.7927C428.536 59.8702 427.275 61.7674 426.021 63.6519C424.54 65.8789 423.034 68.1342 421.022 69.8945C419.009 71.6548 416.396 72.8909 413.733 72.684C420.799 67.9183 425.548 59.8578 426.298 51.3567C426.651 47.3607 426.167 43.3439 426.074 39.3333C425.981 35.3228 426.316 31.1727 428.163 27.6133C430.01 24.0539 433.658 21.2047 437.661 21.3059L434.957 23.8468H434.957Z" fill="#2F2E41"/>
<path d="M363.344 196.809C357.595 201.481 350.528 202.297 347.561 198.631C344.593 194.965 346.848 188.206 352.598 183.534C355.115 181.489 357.884 180.182 360.451 179.668L385.061 160.176L393.945 171.942L368.741 189.908C367.708 192.318 365.861 194.764 363.344 196.809H363.344L363.344 196.809L363.344 196.809Z" fill="#A0616A"/>
<path d="M367.993 170.348L404.663 135.486L408.331 132.73C408.331 132.73 429.381 112.183 434.832 111.712C437.14 111.513 439.449 112.09 441.394 113.356C444.536 115.397 446.163 118.758 446.163 122.144C446.163 124.974 445.025 127.818 442.697 129.912L409.125 160.108L394.843 172.953L377.082 188.933L375.276 185.248L369.17 172.761L367.993 170.348V170.348L367.993 170.348H367.993Z" fill="#8A2BE2"/>
<path d="M446.403 146.755L409.687 158.022C415.834 159.757 418.407 197.286 412.687 198.452C412.687 198.452 473.538 202.788 470.217 198.452C466.17 193.166 471.598 158.038 474.186 158.022L446.403 146.755Z" fill="#A0616A"/>
<path d="M495.259 338L492.05 299.195C492.05 285.314 491.152 272.774 489.712 261.594C483.945 216.716 469.485 193.713 469.485 193.713H415.387C415.314 193.795 415.24 193.86 415.167 193.942L415.158 193.952C402.394 207.392 395.756 241.19 392.803 261.594C391.4 271.304 390.832 277.983 390.832 277.983L385.541 325.093L389.365 338H420.843L420.347 335.235L440.602 261.594L440.85 260.693L441.07 261.594L459.848 338H495.259V338Z" fill="#2F2E41"/>
<path d="M416.496 124.37L427.927 101.249L437.559 84.4521L445.348 76.4988H466.666L468.65 84.4521L480.557 91.0799L484.769 124.219L469.764 196.119C451.903 181.538 415.09 177.5 415.09 177.5L409.125 160.108L405.183 139.158L404.707 136.653L416.496 124.37V124.37V124.37Z" fill="#8A2BE2"/>
<path d="M415.124 166.194C407.724 165.983 401.834 161.988 401.967 157.27C402.101 152.552 408.208 148.898 415.608 149.108C418.847 149.2 421.797 150.017 424.079 151.303L455.423 152.589L454.508 167.313L423.706 164.483C421.355 165.637 418.363 166.286 415.124 166.194L415.124 166.194V166.194Z" fill="#A0616A"/>
<path d="M455.209 115.935L484.776 145.346L433.274 150.63L421.306 167.497L493.09 169.882C499.566 172.193 506.465 167.708 506.998 160.84V160.84C507.178 158.522 492.431 99.6822 483.503 94.2197C473.039 87.8175 455.209 115.935 455.209 115.935L461.049 106.194L455.209 115.935Z" fill="#8A2BE2"/>
<path d="M475.747 47.6404C475.962 34.2815 465.328 23.2774 451.994 23.062C438.661 22.8466 427.678 33.5015 427.463 46.8603C427.248 60.2192 437.883 71.2233 451.216 71.4387C464.549 71.6541 475.532 60.9992 475.747 47.6404Z" fill="#A0616A"/>
<path d="M504.607 122.625C504.002 124.922 499.289 126.107 498.188 129.056C494.686 131.058 496.584 114.697 495.172 113.622C494.081 112.804 493.787 114.779 493.54 113.08C492.604 106.704 486.489 108.128 481.959 107.099C481.445 106.098 481.051 105.124 480.795 104.178C480.336 102.469 478.245 101.872 477.008 103.131C476.448 102.635 476.045 100.88 475.651 99.1252C475.366 97.8482 475.082 96.5713 474.752 95.7628L471.598 88.6339L472.616 93.9438C470.553 93.1997 468.471 93.9714 467.27 91.4175C465.73 88.1378 465.115 84.2977 466.234 80.8527C467.252 77.7292 468.966 71.473 470.901 66.2917C468.71 67.881 466.078 69.0385 463.025 69.6173C464.107 67.5595 465.207 65.4648 465.665 63.1773C466.115 60.8899 465.84 58.3451 464.391 56.5261C463.199 55.0287 461.438 55.4053 459.953 54.2019C458.798 53.2648 457.798 50.8671 457.101 49.5534C460.072 59.4475 462.319 69.9572 458.541 79.4012C455.928 85.9422 450.426 91.2613 443.824 93.6774C447.336 91.1603 450.766 88.4777 453.397 85.0602C456.212 81.3947 458.046 76.7646 457.486 72.1712C456.606 64.9596 443.256 42.1488 441.615 37.6657C442.513 42.0478 442.165 45.4653 439.799 47.3486C439.185 40.9913 432.271 41.5701 428.503 39.0254C428.503 39.0254 425.587 22.5167 432.427 22.4157C435.728 22.3697 439.185 14.5977 442.183 13.2105C446.969 10.9965 449.904 12.5032 455.213 12.6685C460.512 12.8247 465.601 15.1122 468.838 19.3105C470.534 21.5062 471.158 19.7607 473.707 21.1295C476.127 22.4248 477.759 21.2214 480.501 21.304C485.993 21.451 491.321 24.3908 494.401 28.9382C497.482 33.4949 499.38 33.0723 498.161 40.1186C498.143 40.2012 498.143 40.3666 498.161 40.6146C498.83 51.7123 497.116 62.8374 492.724 73.0531C491.367 76.195 498.004 79.4378 497.995 83.3605C497.986 87.9172 490.66 92.0697 491.339 94.0173C493.283 103.397 504.203 101.312 501.627 117.012C501.416 118.289 505.01 121.091 504.607 122.625Z" fill="#2F2E41"/>
<path d="M437.716 93.8986C437.917 93.8343 438.119 93.7608 438.321 93.6781C438.064 93.8619 437.817 94.0364 437.56 94.2202L437.716 93.8986H437.716Z" fill="#2F2E41"/>
<path d="M471.726 16.4997C469.099 16.8907 466.431 12.5247 467.922 6.46997C471.172 11.4488 472.833 17.0537 473.095 23.2103L471.343 23.7539L471.726 16.4997Z" fill="#8A2BE2"/>
<path d="M485.145 10.8482C483.353 17.2115 474.251 21.4702 472.643 19.2557L472.459 23.0504L471.333 21.6C474.598 16.7361 479.048 13.005 485.145 10.8482H485.145Z" fill="#8A2BE2"/>
<path d="M285.271 182.444C285.271 180.329 286.988 178.609 289.099 178.609H350.61C352.72 178.609 354.437 180.329 354.437 182.444C354.437 184.558 352.72 186.278 350.61 186.278H289.099C286.988 186.278 285.271 184.558 285.271 182.444Z" fill="#E6E7E8"/>
<path d="M285.271 208.167C285.271 206.052 286.988 204.332 289.099 204.332H350.61C352.72 204.332 354.437 206.052 354.437 208.167C354.437 210.281 352.72 212.001 350.61 212.001H289.099C286.988 212.001 285.271 210.281 285.271 208.167Z" fill="#E6E7E8"/>
<path d="M241.095 199.256C238.985 199.256 237.268 197.536 237.268 195.422C237.268 193.308 238.985 191.587 241.095 191.587H350.61C352.72 191.587 354.437 193.308 354.437 195.422C354.437 197.536 352.72 199.256 350.61 199.256H241.095Z" fill="#E6E7E8"/>
<path d="M232.953 162.557L225.407 158.976C228.502 163.303 231.169 170.062 232.597 175.441C235.014 170.431 238.911 164.301 242.769 160.639L234.793 162.695C239.708 138.563 258.192 121.239 279.36 121.239V119.401C257.25 119.401 237.971 137.451 232.953 162.557Z" fill="#3F3D56"/>
<path d="M267.685 199.326H220.006C217.983 199.326 216.338 197.678 216.338 195.652C216.338 193.625 217.983 191.977 220.006 191.977H267.685C269.707 191.977 271.353 193.625 271.353 195.652C271.353 197.678 269.707 199.326 267.685 199.326Z" fill="#8A2BE2"/>
<path d="M281.611 124.173C282.881 116.332 277.566 108.943 269.739 107.671C261.913 106.398 254.539 111.724 253.269 119.565C251.999 127.407 257.314 134.795 265.14 136.068C272.967 137.34 280.341 132.015 281.611 124.173Z" fill="#3F3D56"/>
<path d="M189.502 17.744C194.392 17.744 198.357 13.7719 198.357 8.872C198.357 3.97213 194.392 0 189.502 0C184.611 0 180.647 3.97213 180.647 8.872C180.647 13.7719 184.611 17.744 189.502 17.744Z" fill="#E6E7E8"/>
<path d="M293.113 171.163C298.004 171.163 301.968 167.191 301.968 162.291C301.968 157.391 298.004 153.419 293.113 153.419C288.223 153.419 284.258 157.391 284.258 162.291C284.258 167.191 288.223 171.163 293.113 171.163Z" fill="#E6E7E8"/>
</g>
<defs>
<clipPath id="clip0_367_394">
<rect width="507" height="338" fill="white"/>
</clipPath>
</defs>
</svg>
