<svg width="14" height="18" viewBox="0 0 14 18" fill="none" xmlns="http://www.w3.org/2000/svg">
<path d="M6.99998 8.99999C6.08331 8.99999 5.33331 8.24999 5.33331 7.33332C5.33331 6.41666 6.08331 5.66666 6.99998 5.66666C7.91665 5.66666 8.66665 6.41666 8.66665 7.33332C8.66665 8.24999 7.91665 8.99999 6.99998 8.99999ZM12 7.49999C12 4.47499 9.79165 2.33332 6.99998 2.33332C4.20831 2.33332 1.99998 4.47499 1.99998 7.49999C1.99998 9.44999 3.62498 12.0333 6.99998 15.1167C10.375 12.0333 12 9.44999 12 7.49999ZM6.99998 0.666656C10.5 0.666656 13.6666 3.34999 13.6666 7.49999C13.6666 10.2667 11.4416 13.5417 6.99998 17.3333C2.55831 13.5417 0.333313 10.2667 0.333313 7.49999C0.333313 3.34999 3.49998 0.666656 6.99998 0.666656Z" fill="#626262"/>
</svg>
